# This file uses centimeters as units for non-parametric coordinates.

mtllib emptyLocker.mtl
g default
v -0.966442 -2.168245 0.726082
v 0.966442 -2.168245 0.726082
v -0.966442 2.168245 0.726082
v 0.966442 2.168245 0.726082
v -0.966442 2.168245 -0.726082
v 0.966442 2.168245 -0.726082
v -0.966442 -2.168245 -0.726082
v 0.966442 -2.168245 -0.726082
v -0.867729 -2.052663 0.726082
v 0.867729 -2.052663 0.726082
v 0.867729 2.052663 0.726082
v -0.867729 2.052663 0.726082
v -0.867729 -2.052663 -0.574729
v 0.867729 -2.052663 -0.574729
v 0.867729 2.052663 -0.574729
v -0.867729 2.052663 -0.574729
vt 0.625210 0.003359
vt 0.794159 0.003359
vt 0.794159 0.507878
vt 0.625210 0.507878
vt 0.231385 0.003359
vt 0.400334 0.003359
vt 0.400334 0.507878
vt 0.231385 0.507878
vt 0.511492 0.513992
vt 0.511492 0.991616
vt 0.420342 0.284777
vt 0.360152 0.513992
vt 0.006904 0.991616
vt 0.006905 0.513992
vt 0.158244 0.513992
vt 0.158244 0.991616
vt 0.743114 0.862761
vt 0.518238 0.862761
vt 0.518238 0.515390
vt 0.743115 0.515390
vt 0.417588 0.225641
vt 0.417588 0.023733
vt 0.571682 0.284777
vt 0.571681 0.486685
vt 0.006508 0.507878
vt 0.006508 0.003359
vt 0.613726 0.016806
vt 0.411818 0.016806
vt 0.613726 0.494430
vt 0.411818 0.494430
vt 0.420342 0.486684
vt 0.360152 0.991616
vt 0.568928 0.225640
vt 0.568928 0.023733
vt 0.518238 0.693813
vt 0.743114 0.693813
vt 0.518238 0.684339
vt 0.743115 0.684339
vn 0.000000 0.000000 1.000000
vn 0.000000 0.000000 1.000000
vn 0.000000 0.000000 1.000000
vn 0.000000 0.000000 1.000000
vn 0.000000 1.000000 0.000000
vn 0.000000 1.000000 0.000000
vn 0.000000 1.000000 0.000000
vn 0.000000 1.000000 0.000000
vn 0.000000 0.000000 -1.000000
vn 0.000000 0.000000 -1.000000
vn 0.000000 0.000000 -1.000000
vn 0.000000 0.000000 -1.000000
vn 0.000000 -1.000000 0.000000
vn 0.000000 -1.000000 0.000000
vn 0.000000 -1.000000 0.000000
vn 0.000000 -1.000000 0.000000
vn 1.000000 0.000000 0.000000
vn 1.000000 0.000000 0.000000
vn 1.000000 0.000000 0.000000
vn 1.000000 0.000000 0.000000
vn -1.000000 0.000000 0.000000
vn -1.000000 0.000000 0.000000
vn -1.000000 0.000000 0.000000
vn -1.000000 0.000000 0.000000
vn 0.000000 0.000000 1.000000
vn -0.000000 0.000000 1.000000
vn -0.000000 0.000000 1.000000
vn 0.000000 0.000000 1.000000
vn -0.000000 0.000000 1.000000
vn -0.000000 0.000000 1.000000
vn 0.000000 0.000000 1.000000
vn 0.000000 0.000000 1.000000
vn 0.000000 1.000000 0.000000
vn 0.000000 1.000000 0.000000
vn 0.000000 1.000000 0.000000
vn 0.000000 1.000000 0.000000
vn -1.000000 0.000000 0.000000
vn -1.000000 0.000000 0.000000
vn -1.000000 0.000000 0.000000
vn -1.000000 0.000000 0.000000
vn 0.000000 -1.000000 0.000000
vn 0.000000 -1.000000 0.000000
vn 0.000000 -1.000000 0.000000
vn 0.000000 -1.000000 0.000000
vn 1.000000 0.000000 0.000000
vn 1.000000 0.000000 0.000000
vn 1.000000 0.000000 0.000000
vn 1.000000 0.000000 0.000000
s off
g pCube1
usemtl initialShadingGroup
f 13/15/1 14/12/2 15/32/3 16/16/4
f 3/35/5 4/36/6 6/17/7 5/18/8
f 5/8/9 6/25/10 8/26/11 7/5/12
f 7/19/13 8/20/14 2/38/15 1/37/16
f 2/1/17 8/2/18 6/3/19 4/4/20
f 7/5/21 1/6/22 3/7/23 5/8/24
s 1
f 1/6/25 2/1/26 10/27/27 9/28/28
f 2/1/26 4/4/29 11/29/30 10/27/27
f 4/4/29 3/7/31 12/30/32 11/29/30
f 3/7/31 1/6/25 9/28/28 12/30/32
s off
f 9/21/33 10/22/34 14/34/35 13/33/36
f 10/9/37 11/10/38 15/32/39 14/12/40
f 11/23/41 12/24/42 16/31/43 15/11/44
f 12/13/45 9/14/46 13/15/47 16/16/48
